<svg
    preserveAspectRatio="none"
    viewBox="0 0 1621 2457"
    fill="none"
    xmlns="http://www.w3.org/2000/svg"
>
    <path
        d="M36.1785 410.253L38.0504 409.549L36.1785 410.253ZM418.25 1355.08C418.319 1356.19 419.269 1357.02 420.371 1356.96C421.474 1356.89 422.311 1355.94 422.242 1354.83L418.25 1355.08ZM1264.05 1758.53C1263.83 1757.44 1262.78 1756.74 1261.7 1756.95C1260.62 1757.17 1259.91 1758.22 1260.13 1759.3L1264.05 1758.53ZM602.485 2450.82C602.527 2451.93 603.457 2452.79 604.561 2452.74C605.664 2452.7 606.524 2451.77 606.482 2450.67L602.485 2450.82ZM66.9992 261.552L68.2982 260.031L65.2566 257.433L63.9577 258.954L66.9992 261.552ZM1053.48 547.648C1052.41 547.383 1051.32 548.038 1051.06 549.11C1050.79 550.182 1051.45 551.266 1052.52 551.531L1053.48 547.648ZM634.543 528.844C635.648 528.82 636.524 527.905 636.5 526.801C636.476 525.696 635.561 524.821 634.457 524.845L634.543 528.844ZM1216.26 677.65C1236.92 754.75 1197.25 818.586 1125.28 875.477C1053.3 932.374 949.57 981.849 843.484 1030.11C737.517 1078.32 629.202 1125.31 548.482 1177.19C467.898 1228.98 413.932 1286.19 418.25 1355.08L422.242 1354.83C418.077 1288.39 470.098 1232.32 550.645 1180.56C631.055 1128.88 739.016 1082.03 845.141 1033.75C951.148 985.526 1055.33 935.864 1127.76 878.615C1200.19 821.36 1241.41 756.041 1220.12 676.614L1216.26 677.65ZM1260.13 1759.3C1270.56 1811.95 1234.84 1854.77 1173.94 1896.33C1113.11 1937.83 1028.25 1977.36 942.176 2023.71C770.457 2116.18 594.149 2235.7 602.485 2450.82L606.482 2450.67C598.251 2238.26 772.147 2119.82 944.072 2027.23C1029.82 1981.06 1115.14 1941.29 1176.19 1899.63C1237.16 1858.03 1275.01 1813.83 1264.05 1758.53L1260.13 1759.3ZM63.9577 258.954C27.2314 301.953 15.1061 359.92 34.3066 410.957L38.0504 409.549C19.4118 360.005 31.1256 303.553 66.9992 261.552L63.9577 258.954ZM1052.52 551.531C1138.05 572.681 1198.34 610.782 1216.26 677.65L1220.12 676.614C1201.63 607.59 1139.46 568.91 1053.48 547.648L1052.52 551.531ZM34.3066 410.957C47.1681 445.145 74.2989 469.91 111.762 487.744C149.198 505.564 197.088 516.533 251.772 523.099C361.126 536.228 498.257 531.806 634.543 528.844L634.457 524.845C498.029 527.81 361.251 532.214 252.249 519.127C197.754 512.584 150.354 501.684 113.482 484.132C76.6365 466.593 50.4405 442.483 38.0504 409.549L34.3066 410.957Z"
        fill="#67B6FF"
    ></path>
</svg>