<svg preserveAspectRatio="none" viewBox="0 0 32 32" fill="none" xmlns="http://www.w3.org/2000/svg">
    <path
        d="M29.3333 1.33334H20C19.2366 1.33021 18.4965 1.59562 17.9091 2.08311C17.3216 2.57061 16.9243 3.24915 16.7867 4.00001L15.56 10.7333C15.4752 11.2025 15.4946 11.6845 15.6167 12.1453C15.7388 12.6061 15.9607 13.0344 16.2667 13.4C16.5743 13.7658 16.9579 14.0602 17.3908 14.2628C17.8236 14.4654 18.2954 14.5714 18.7733 14.5733H22.6667L22.3333 15.4533C22.0873 16.1058 22.0018 16.808 22.0841 17.5005C22.1665 18.1929 22.4142 18.8554 22.8065 19.432C23.1987 20.0086 23.7239 20.4824 24.3378 20.8133C24.9516 21.1442 25.6361 21.3226 26.3333 21.3333C26.5921 21.3354 26.8458 21.2621 27.0636 21.1224C27.2815 20.9827 27.4539 20.7827 27.56 20.5467L30.5467 13.8C30.6147 13.653 30.6553 13.4949 30.6667 13.3333V2.66667C30.6667 2.31305 30.5262 1.97391 30.2761 1.72386C30.0261 1.47382 29.687 1.33334 29.3333 1.33334ZM28 12.9733L25.56 18.48C25.3219 18.3504 25.1166 18.168 24.96 17.9467C24.8031 17.7246 24.7039 17.4669 24.6713 17.1969C24.6387 16.9269 24.6738 16.6531 24.7733 16.4L25.28 15.0667C25.4133 14.7209 25.4587 14.3474 25.4122 13.9797C25.3656 13.6121 25.2286 13.2617 25.0133 12.96C24.8014 12.6595 24.5194 12.415 24.1919 12.2478C23.8644 12.0805 23.5011 11.9955 23.1333 12H18.7467C18.6581 12.0003 18.5705 11.9813 18.49 11.9445C18.4094 11.9077 18.3378 11.8538 18.28 11.7867C18.1765 11.6445 18.1334 11.4672 18.16 11.2933L19.3867 4.62667C19.3809 4.54404 19.3927 4.46112 19.4214 4.38339C19.45 4.30565 19.4947 4.23485 19.5527 4.17565C19.6106 4.11645 19.6804 4.07019 19.7575 4.03992C19.8346 4.00964 19.9173 3.99604 20 4.00001H28V12.9733ZM13.2533 17.4H9.4L9.73334 16.52C9.97587 15.8637 10.0564 15.1585 9.96802 14.4645C9.87967 13.7704 9.62507 13.1079 9.22584 12.5332C8.82662 11.9586 8.29458 11.4889 7.67494 11.1639C7.05529 10.8389 6.36636 10.6684 5.66667 10.6667C5.40792 10.6646 5.15417 10.7379 4.93636 10.8776C4.71855 11.0173 4.54608 11.2173 4.44 11.4533L1.45334 18.2C1.37693 18.3676 1.33607 18.5492 1.33334 18.7333V29.4C1.33334 29.7536 1.47381 30.0928 1.72386 30.3428C1.97391 30.5929 2.31305 30.7333 2.66667 30.7333H12C12.7634 30.7365 13.5035 30.4711 14.091 29.9836C14.6784 29.4961 15.0757 28.8175 15.2133 28.0667L16.44 21.4C16.5248 20.9309 16.5054 20.4489 16.3833 19.9881C16.2612 19.5273 16.0393 19.0989 15.7333 18.7333C15.4442 18.3416 15.0718 18.0188 14.643 17.7883C14.2142 17.5577 13.7396 17.4251 13.2533 17.4ZM12.6133 27.5067C12.5904 27.6503 12.515 27.7803 12.4017 27.8715C12.2884 27.9626 12.1452 28.0084 12 28H4V19.0267L6.44 13.52C6.67814 13.6496 6.8834 13.832 7.04 14.0533C7.19691 14.2755 7.29613 14.5331 7.32871 14.8031C7.3613 15.0731 7.32623 15.3469 7.22667 15.6L6.72 16.9333C6.58671 17.2791 6.5413 17.6526 6.58784 18.0203C6.63438 18.3879 6.77142 18.7383 6.98667 19.04C7.19567 19.3455 7.47628 19.5951 7.804 19.7671C8.13172 19.9391 8.49656 20.0282 8.86667 20.0267H13.2533C13.3419 20.0264 13.4295 20.0454 13.5101 20.0822C13.5906 20.119 13.6622 20.1729 13.72 20.24C13.8235 20.3822 13.8666 20.5595 13.84 20.7333L12.6133 27.5067Z"
        fill="#929292"></path>
</svg>