<svg preserveAspectRatio="none" viewBox="0 0 40 40" fill="none" xmlns="http://www.w3.org/2000/svg"
>
    <path
        d="M20.3984 1.9375C19.9063 1.9375 19.4062 1.9711 18.8984 2.02969C16.1953 2.34297 13.8359 3.40391 12.1719 4.925C10.5 6.44688 9.5 8.48438 9.75 10.6406C9.96875 12.5625 11.1406 14.1719 12.8047 15.2813C13.0078 14.7969 13.2656 14.3516 13.5234 13.9922C12.1484 13.0859 11.3047 11.8594 11.1484 10.4766C10.9687 8.9375 11.6719 7.38438 13.0859 6.09063C14.5078 4.7961 16.625 3.82031 19.0703 3.5375C21.5156 3.25391 23.8047 3.71953 25.4844 4.65469C27.1563 5.59063 28.1953 6.94453 28.375 8.47657C28.5469 9.98438 27.8906 11.5078 26.5469 12.7734C25.716 12.2543 24.7607 11.9683 23.7812 11.9453H23.6094C23.2109 11.9531 22.8203 12 22.4141 12.0859C19.4844 12.7656 17.6641 15.6406 18.3359 18.5469C18.75 20.3438 20.0234 21.7188 21.6328 22.3359L24.7344 35.7891L28.4063 38.0625L30.7109 34.4141L28.875 33.2813L30.0312 31.4531L28.1953 30.3125L29.3438 28.4922L27.5078 27.3516L28.6641 25.5234L27.6094 20.9609C28.7891 19.7031 29.3281 17.9063 28.9141 16.1016C28.7031 15.1875 28.2734 14.3828 27.6797 13.7266C29.1562 12.2422 30.0078 10.3281 29.7734 8.32032C29.5234 6.16797 28.0859 4.41094 26.1094 3.31172C24.5078 2.41719 22.5313 1.92344 20.3984 1.9375ZM18.8203 12.5234C16.7969 12.6094 14.9219 13.8359 14.1016 15.8203C13.3906 17.5313 13.6328 19.3906 14.5859 20.8359L9.28906 33.5703L10.9531 37.5547L14.9531 35.9219L14.1172 33.9297L16.1172 33.1172L15.2891 31.125L17.2891 30.3125L16.4531 28.3203L18.4531 27.5L20.2344 23.2188C18.6328 22.3203 17.4063 20.7813 16.9609 18.8594C16.4219 16.4922 17.2031 14.125 18.8203 12.5234ZM23.3516 13.0859C24.0469 13.0781 24.7031 13.3594 25.1797 13.8203C24.75 14.0938 24.2734 14.3359 23.7734 14.5547C23.6484 14.5078 23.5156 14.4922 23.375 14.4922C23.3281 14.4922 23.2891 14.4922 23.25 14.5C22.7031 14.5625 22.2969 14.9766 22.2266 15.4922C22.2109 15.5703 22.2109 15.6484 22.2109 15.7188C22.2187 15.7422 22.2188 15.7734 22.2188 15.7969C22.2969 16.4531 22.8672 16.9063 23.5234 16.8281C24.0547 16.7656 24.4609 16.3672 24.5391 15.8672C25.0234 15.6484 25.4766 15.4063 25.9063 15.1328C25.9219 15.2109 25.9375 15.2891 25.9453 15.3672C26.1094 16.7734 25.0859 18.0625 23.6797 18.2266C22.2813 18.3906 20.9844 17.3672 20.8281 15.9609C20.6641 14.5547 21.6875 13.2656 23.0938 13.1016C23.1797 13.0938 23.2656 13.0859 23.3516 13.0859Z"
        fill="white"></path>
</svg>