<svg preserveAspectRatio="none" viewBox="0 0 32 32" fill="none" xmlns="http://www.w3.org/2000/svg">
    <path
        d="M23 16C23.7956 16 24.5587 16.3161 25.1213 16.8787C25.6839 17.4413 26 18.2044 26 19V20C26 23.942 22.28 28 16 28C9.72 28 6 23.942 6 20V19C6 18.2044 6.31607 17.4413 6.87868 16.8787C7.44129 16.3161 8.20435 16 9 16H23ZM23 18H9C8.73478 18 8.48043 18.1054 8.29289 18.2929C8.10536 18.4804 8 18.7348 8 19V20C8 22.876 10.864 26 16 26C21.136 26 24 22.876 24 20V19C24 18.7348 23.8946 18.4804 23.7071 18.2929C23.5196 18.1054 23.2652 18 23 18ZM16 3C17.4587 3 18.8576 3.57946 19.8891 4.61091C20.9205 5.64236 21.5 7.04131 21.5 8.5C21.5 9.95869 20.9205 11.3576 19.8891 12.3891C18.8576 13.4205 17.4587 14 16 14C14.5413 14 13.1424 13.4205 12.1109 12.3891C11.0795 11.3576 10.5 9.95869 10.5 8.5C10.5 7.04131 11.0795 5.64236 12.1109 4.61091C13.1424 3.57946 14.5413 3 16 3ZM16 5C15.0717 5 14.1815 5.36875 13.5251 6.02513C12.8687 6.6815 12.5 7.57174 12.5 8.5C12.5 9.42826 12.8687 10.3185 13.5251 10.9749C14.1815 11.6313 15.0717 12 16 12C16.9283 12 17.8185 11.6313 18.4749 10.9749C19.1313 10.3185 19.5 9.42826 19.5 8.5C19.5 7.57174 19.1313 6.6815 18.4749 6.02513C17.8185 5.36875 16.9283 5 16 5Z"
        fill="#929292"></path>
</svg>